<?xml version="1.0" encoding="UTF-8"?>
<svg id="Calque_2" data-name="Calque 2" xmlns="http://www.w3.org/2000/svg" viewBox="0 0 500 134.89">
  <defs>
    <style>
      .cls-1 {
        fill: #8a7cff;
      }

      .cls-2 {
        fill: #eaeaea;
      }
    </style>
  </defs>
  <g id="Calque_2-2" data-name="Calque 2">
    <g id="logotype-dark">
      <path class="cls-2" d="M188.07,76.19c5.35-16.4,21.42-26.68,39.62-26.68,24.78,0,34.72,15.66,28.91,33.53l-.61,1.71h-51.7c-.31,7.96,5.2,13.58,16.98,13.58,8.41,0,13.31-3.43,16.67-7.59l14.68,6.85c-6.73,7.47-17.75,12.73-32.28,12.73-26.46,0-38.39-14.44-32.27-34.14ZM225.85,61.25c-8.72,0-16.21,4.53-19.43,12.98h33.96c1.22-6.12-1.84-12.98-14.53-12.98ZM240.03,27.45c1.69-1.63,3.95-2.54,6.3-2.54h18.06l-.46,1.47-26.95,15.55c-1.38.8-2.95,1.22-4.55,1.22h-8.73l16.33-15.7Z"/>
      <path class="cls-2" d="M250.79,75.21c5.05-15.66,20.8-25.95,39.46-25.95s29.83,8.93,30.59,21.91l-18.82,2.69c0-7.22-3.52-12.36-13-12.36s-17.44,6.73-20.65,16.4c-3.06,9.54-1.22,19.58,13.61,19.58,7.95,0,12.54-3.67,16.52-10.04l15.75,6c-7.8,10.16-18.81,16.4-33.5,16.4-24.78,0-36.1-15.78-29.98-34.63Z"/>
      <path class="cls-2" d="M330.19,26.25h18.2l-10.86,32.19c5.35-5.26,11.93-8.57,19.73-8.57,17.28,0,25.7,11.14,20.35,26.93l-10.71,31.82h-18.66l11.01-32.8c2.45-7.59,0-13.83-10.56-13.83-8.56,0-14.38,6.12-17.44,15.54l-10.4,31.09h-18.2l27.54-82.37Z"/>
      <path class="cls-2" d="M371.34,76.31c5.35-16.15,21.57-26.8,40.23-26.8,24.63,0,37.32,15.42,30.9,34.02-5.2,15.91-21.72,26.43-40.38,26.43-23.86,0-37.02-14.81-30.75-33.65ZM424.27,81.94c3.21-10.65-.15-20.07-13.92-20.07-9.79,0-17.59,6-20.96,16.15-2.91,9.42-.46,19.58,14.23,19.58,9.79,0,17.44-5.26,20.65-15.66Z"/>
      <path class="cls-2" d="M429.02,95.03l16.98-5.63c3.06,5.02,8.87,9.05,17.59,9.05,5.2,0,8.26-1.34,9.48-4.65,1.53-3.91-2.75-5.88-14.68-9.18-14.99-4.16-21.57-9.79-18.81-20.68,3.06-9.3,14.68-15.05,28.3-15.05s26,5.63,32.12,16.15l-16.52,4.77c-2.91-5.39-8.57-8.81-16.83-8.81-5.05,0-9.02,1.71-10.25,4.9-1.07,4.16,1.99,5.38,13.31,8.56,15.14,4.04,24.32,10.65,20.65,21.42-3.52,10.4-14.07,14.93-28.76,14.93s-27.07-6-32.58-15.79Z"/>
      <g>
        <path class="cls-1" d="M85.85.28c2.47-.19,4.94-.28,7.46-.28,26.29,0,46.48,7.83,58.83,20.56,4.1,4.24,2.7,7.69-3.17,8.02-17.67.89-62.84-18.69-64.42-19.3-10.35-4.24-9.88-8.25,1.31-9Z"/>
        <path class="cls-1" d="M80.2,134.61c-2.47.19-4.94.28-7.46.28-26.29,0-46.48-7.83-58.83-20.56-4.1-4.24-2.7-7.69,3.17-8.02,17.67-.89,62.84,18.69,64.42,19.3,10.35,4.24,9.88,8.25-1.31,9Z"/>
        <path class="cls-1" d="M155.91,90.34c-2.98,5.17-6.57,9.98-10.63,14.4-.42.47-1.21,1.03-1.77,1.26-7.74,3.12-16.64,5.13-26.11,4.52-15.2-.98-30.91-8.58-47.41-16.6-.14-.05-.23-.05-.23-.09-8.95-4.29-19.3-6.71-29.93-6.81l-35.15-.23c-2.47-.05-4.57-2.05-4.62-4.52-.09-1.44-.09-2.89,0-4.38.09-2.19,1.86-4.29,4.01-4.52,11.23-1.35,23.45-.56,37.25,3.31,2.89.75,5.87,1.73,8.9,2.84h.05c5.41,1.96,11.28,3.12,17.34,3.17h2.42l81.81.7c4.34,0,6.2,3.17,4.06,6.95Z"/>
        <path class="cls-1" d="M165.84,59.62c-.14,1.4-1.31,3.12-2.56,3.73-8.95,4.34-19.77,7.6-31.51,6.9-15.15-.98-30.81-8.53-47.32-16.55-.19-.05-.23-.05-.28-.09-9.09-4.38-19.63-6.71-30.3-6.81l-36.27-.28c-4.99-.05-6.62-3.31-3.78-7.41,1.07-1.54,2.19-3.03,3.4-4.48.65-.84,2.1-1.63,3.17-1.72,10.63-1.07,22.28-.14,35.24,3.5,2.89.79,5.92,1.72,8.95,2.84l.05.05c5.45,1.96,11.19,3.03,17.2,3.08l2.7.05,76.31.65c2.24,0,4.24,1.86,4.57,4.06.65,4.01.79,8.2.42,12.49Z"/>
      </g>
    </g>
  </g>
</svg>