<?xml version="1.0" encoding="UTF-8"?>
<svg id="Calque_2" data-name="Calque 2" xmlns="http://www.w3.org/2000/svg" viewBox="0 178 500 142">
  <defs>
    <style>
      .cls-1 {
        fill: #eaeaea;
      }

      .cls-2 {
        fill: #969696;
      }
    </style>
  </defs>
  <g id="logotype_ss-titre" data-name="logotype+ss-titre">
    <path class="cls-1" d="M2.58,230.93c5.12-15.69,20.48-25.52,37.89-25.52,23.7,0,33.21,14.98,27.65,32.07l-.59,1.64H18.09c-.29,7.61,4.97,12.99,16.24,12.99,8.05,0,12.73-3.28,15.95-7.26l14.05,6.56c-6.44,7.14-16.97,12.17-30.87,12.17-25.31,0-36.72-13.81-30.87-32.66ZM38.72,216.65c-8.34,0-15.51,4.33-18.58,12.41h32.48c1.17-5.86-1.76-12.41-13.9-12.41ZM52.28,184.31c1.62-1.56,3.78-2.43,6.03-2.43h17.27l-.44,1.4-25.78,14.87c-1.32.76-2.83,1.17-4.35,1.17h-8.35l15.62-15.01Z"/>
    <path class="cls-1" d="M62.57,229.99c4.83-14.98,19.9-24.82,37.75-24.82s28.53,8.55,29.26,20.95l-18,2.58c0-6.91-3.36-11.82-12.44-11.82s-16.68,6.44-19.75,15.69c-2.93,9.13-1.17,18.73,13.02,18.73,7.61,0,12-3.51,15.8-9.6l15.07,5.74c-7.46,9.71-17.99,15.68-32.04,15.68-23.7,0-34.53-15.1-28.68-33.12Z"/>
    <path class="cls-1" d="M138.51,183.17h17.41l-10.39,30.79c5.12-5.03,11.41-8.2,18.87-8.2,16.53,0,24.58,10.65,19.46,25.75l-10.24,30.43h-17.85l10.53-31.37c2.34-7.26,0-13.23-10.1-13.23-8.19,0-13.75,5.85-16.68,14.86l-9.95,29.73h-17.41l26.34-78.78Z"/>
    <path class="cls-1" d="M177.88,231.05c5.12-15.45,20.63-25.64,38.48-25.64,23.55,0,35.7,14.75,29.55,32.54-4.97,15.22-20.78,25.28-38.63,25.28-22.82,0-35.4-14.16-29.41-32.19ZM228.5,236.43c3.07-10.19-.15-19.2-13.31-19.2-9.36,0-16.82,5.74-20.04,15.45-2.78,9.01-.44,18.73,13.61,18.73,9.36,0,16.68-5.03,19.75-14.98Z"/>
    <path class="cls-1" d="M233.04,248.96l16.24-5.38c2.93,4.8,8.48,8.66,16.82,8.66,4.97,0,7.9-1.29,9.07-4.45,1.46-3.74-2.63-5.62-14.05-8.78-14.34-3.98-20.63-9.37-17.99-19.78,2.93-8.9,14.05-14.4,27.06-14.4s24.87,5.38,30.72,15.45l-15.8,4.57c-2.78-5.15-8.19-8.43-16.09-8.43-4.83,0-8.63,1.64-9.8,4.68-1.02,3.98,1.9,5.15,12.73,8.19,14.48,3.86,23.26,10.19,19.75,20.48-3.37,9.95-13.46,14.28-27.51,14.28s-25.89-5.74-31.16-15.1Z"/>
    <path class="cls-2" d="M0,293.52c0-8.78,6.66-14.52,15.59-14.52,4.83,0,8.71,1.82,11.2,4.74v-15.99h6.88v39.47h-6.88v-4.1c-2.41,2.87-6.37,4.69-11.27,4.69-8.78,0-15.52-5.33-15.52-14.29ZM27.15,293.52v-.47c0-5.5-3.73-9.19-9.81-9.19s-9.88,3.45-9.88,9.49v.41c0,5.91,3.88,9.19,9.88,9.19s9.81-3.92,9.81-9.43Z"/>
    <path class="cls-2" d="M34.83,293.46c0-8.43,7.17-14.35,17.34-14.35s17.27,5.91,17.27,14.35-7.32,14.23-17.42,14.23-17.2-5.8-17.2-14.23ZM62.2,293.64v-.23c0-5.8-3.81-9.49-10.03-9.49s-10.17,3.69-10.17,9.49v.23c0,5.68,3.81,9.19,10.03,9.19s10.17-3.51,10.17-9.19Z"/>
    <path class="cls-2" d="M70.6,279.59h7.1v5.27c1.83-3.75,5.42-5.86,10.61-5.86,7.46,0,12,4.04,12,11.36v16.86h-7.1v-16.51c0-4.39-2.34-6.68-7.03-6.68-5.42,0-8.49,3.57-8.49,10.01v13.18h-7.1v-27.64Z"/>
    <path class="cls-2" d="M103.45,279.59h7.1v5.27c1.83-3.75,5.42-5.86,10.61-5.86,7.46,0,12,4.04,12,11.36v16.86h-7.1v-16.51c0-4.39-2.34-6.68-7.03-6.68-5.42,0-8.49,3.57-8.49,10.01v13.18h-7.1v-27.64Z"/>
    <path class="cls-2" d="M134.11,293.58c0-8.55,7.1-14.46,16.9-14.46s16.25,5.45,16.25,14.11v2.11h-26.05c.44,4.74,4.17,7.73,10.1,7.73s8.49-2.28,9.81-4.98l6.29,1.93c-2.27,4.16-7.24,7.67-16.1,7.67-10.61,0-17.2-5.62-17.2-14.11ZM150.87,283.74c-5.27,0-9.07,2.81-9.81,7.32h18.88c-.29-4.8-3.58-7.32-9.07-7.32ZM155.92,266.94h7.98v.53l-11.05,8.02h-4.39l7.46-8.55Z"/>
    <path class="cls-2" d="M167.11,293.58c0-8.55,7.1-14.46,16.9-14.46s16.25,5.45,16.25,14.11v2.11h-26.05c.44,4.74,4.17,7.73,10.1,7.73s8.49-2.28,9.81-4.98l6.29,1.93c-2.27,4.16-7.24,7.67-16.1,7.67-10.61,0-17.2-5.62-17.2-14.11ZM183.86,283.74c-5.27,0-9.07,2.81-9.81,7.32h18.88c-.29-4.8-3.58-7.32-9.07-7.32Z"/>
    <path class="cls-2" d="M200.03,302.19l6.15-2.58c2.12,2.46,5.71,3.69,9.37,3.69,3.95,0,6.29-1.41,6.29-3.75,0-2.46-4.17-2.99-9.51-3.92-6.37-1.05-11.93-2.75-11.93-8.08,0-4.86,5.78-8.55,13.03-8.55,6.51,0,11.56,2.34,14.93,5.91l-6.22,2.4c-1.9-2.34-5.05-3.69-8.71-3.69s-6.15,1.41-6.15,3.51c0,2.34,2.27,2.75,8.56,3.75,6.37.99,12.88,2.81,12.88,8.26,0,5.15-5.64,8.84-13.46,8.84-6.73,0-12.07-2.23-15.22-5.8Z"/>
    <path class="cls-2" d="M239.17,293.35c0-8.26,7.03-14.23,17.12-14.23,8.05,0,13.24,3.51,15.37,8.84l-6.81,1.76c-1.17-3.63-3.73-5.8-8.71-5.8-6.07,0-9.81,3.81-9.81,9.37v.23c0,5.45,3.51,9.37,9.59,9.37,5.64,0,8.05-2.28,9.29-6.09l6.73,1.7c-2.34,5.56-7.54,9.19-15.88,9.19-10.32,0-16.9-5.91-16.9-14.35Z"/>
    <path class="cls-2" d="M271.29,299.96c0-6.21,5.78-7.61,13.46-8.96,5.93-1,9.59-1.29,10.25-2.93v-.35c0-2.28-2.12-4.04-7.46-4.04s-8.27,1.87-8.27,5.04v.29h-7.17c.22-6.15,6.37-9.9,15.51-9.9s14.12,3.16,14.12,10.13v17.98h-6.81v-4.16c-2.41,3.28-6.73,4.86-11.64,4.86-7.39,0-12-3.22-12-7.96ZM295,296.1v-3.46c-2.12,1.17-5.85,1.64-9.22,2.28-3.95.82-7.24,1.81-7.24,4.8,0,2.28,2.12,3.87,5.93,3.87,5.12,0,9.95-2.11,10.54-7.49Z"/>
    <path class="cls-2" d="M304.94,279.59h6.95v4.1c2.34-2.93,6.37-4.69,11.2-4.69,8.93,0,15.59,5.39,15.59,14.23v.06c0,8.9-6.66,14.52-15.66,14.52-4.76,0-8.64-1.76-11.05-4.63v14.93h-7.03v-38.53ZM331.21,293.46v-.41c0-5.97-3.95-9.19-9.88-9.19s-9.8,3.87-9.8,9.43v.47c0,5.51,3.73,9.19,9.8,9.19s9.88-3.51,9.88-9.49Z"/>
    <path class="cls-2" d="M342.18,300.32v-15.87h-5.56v-4.86h5.56v-5.44l6.81-3.4v8.84h7.54v4.86h-7.54v15.22c0,1.76.88,2.58,3.15,2.58h4.1v4.98h-6.15c-6.22,0-7.9-2.52-7.9-6.91Z"/>
    <path class="cls-2" d="M356.96,296.39v-16.8h7.17v16.51c0,4.33,2.34,6.68,7.1,6.68,5.71,0,8.41-3.98,8.41-10.01v-13.18h7.03v27.64h-7.03v-4.92c-1.9,3.57-5.27,5.39-10.32,5.39-7.76,0-12.37-4.27-12.37-11.3Z"/>
    <path class="cls-2" d="M390.18,279.59h7.1v5.21c.95-3.22,3.66-5.51,10.1-5.51h1.03v5.62h-3.22c-6.22,0-7.9,2.46-7.9,8.14v14.17h-7.1v-27.64Z"/>
    <path class="cls-2" d="M405.4,293.58c0-8.55,7.1-14.46,16.9-14.46s16.25,5.45,16.25,14.11v2.11h-26.05c.44,4.74,4.17,7.73,10.1,7.73s8.49-2.28,9.81-4.98l6.29,1.93c-2.27,4.16-7.24,7.67-16.1,7.67-10.61,0-17.2-5.62-17.2-14.11ZM422.15,283.74c-5.27,0-9.07,2.81-9.81,7.32h18.88c-.29-4.8-3.58-7.32-9.07-7.32ZM427.2,266.94h7.98v.53l-11.05,8.02h-4.39l7.46-8.55Z"/>
    <path class="cls-2" d="M438.39,293.58c0-8.55,7.1-14.46,16.9-14.46s16.25,5.45,16.25,14.11v2.11h-26.05c.44,4.74,4.17,7.73,10.1,7.73s8.49-2.28,9.81-4.98l6.29,1.93c-2.27,4.16-7.24,7.67-16.1,7.67-10.61,0-17.2-5.62-17.2-14.11ZM455.15,283.74c-5.27,0-9.07,2.81-9.81,7.32h18.88c-.29-4.8-3.58-7.32-9.07-7.32Z"/>
    <path class="cls-2" d="M471.31,302.19l6.15-2.58c2.12,2.46,5.71,3.69,9.37,3.69,3.95,0,6.29-1.41,6.29-3.75,0-2.46-4.17-2.99-9.51-3.92-6.37-1.05-11.93-2.75-11.93-8.08,0-4.86,5.78-8.55,13.03-8.55,6.51,0,11.56,2.34,14.93,5.91l-6.22,2.4c-1.9-2.34-5.05-3.69-8.71-3.69s-6.15,1.41-6.15,3.51c0,2.34,2.27,2.75,8.56,3.75,6.37.99,12.88,2.81,12.88,8.26,0,5.15-5.64,8.84-13.46,8.84-6.73,0-12.07-2.23-15.22-5.8Z"/>
  </g>
</svg>