<?xml version="1.0" encoding="UTF-8"?>
<svg id="Calque_2" data-name="Calque 2" xmlns="http://www.w3.org/2000/svg" viewBox="0 0 1412.66 825.9">
  <defs>
    <style>
      .cls-1 {
        letter-spacing: -.04em;
      }

      .cls-2 {
        letter-spacing: -.02em;
      }

      .cls-3 {
        letter-spacing: -.03em;
      }

      .cls-4 {
        letter-spacing: -.03em;
      }

      .cls-5 {
        font-family: HalyardDisplay-Regular, 'Halyard Display';
        font-size: 60px;
      }

      .cls-5, .cls-6 {
        fill: #eaeaea;
      }

      .cls-7 {
        letter-spacing: -.02em;
      }

      .cls-8 {
        letter-spacing: -.03em;
      }

      .cls-9 {
        letter-spacing: -.02em;
      }

      .cls-10 {
        letter-spacing: -.06em;
      }

      .cls-11 {
        letter-spacing: -.02em;
      }

      .cls-12 {
        letter-spacing: -.02em;
      }

      .cls-13 {
        letter-spacing: -.03em;
      }

      .cls-14 {
        letter-spacing: -.02em;
      }
    </style>
  </defs>
  <g id="texte-titre-dark">
    <g>
      <path class="cls-6" d="M915.24,556.34c5.12-15.69,20.48-25.52,37.89-25.52,23.7,0,33.21,14.98,27.65,32.07l-.59,1.64h-49.45c-.29,7.61,4.97,12.99,16.24,12.99,8.05,0,12.73-3.28,15.95-7.26l14.04,6.56c-6.44,7.14-16.97,12.17-30.87,12.17-25.31,0-36.72-13.81-30.87-32.66ZM951.38,542.06c-8.34,0-15.51,4.33-18.58,12.41h32.48c1.17-5.85-1.76-12.41-13.9-12.41ZM967.47,507.29h20.77l-.44,1.4-27.8,16.04h-10.68l18.14-17.44Z"/>
      <path class="cls-6" d="M975.24,555.4c4.83-14.98,19.9-24.82,37.75-24.82s28.53,8.55,29.26,20.95l-17.99,2.58c0-6.91-3.37-11.82-12.44-11.82s-16.68,6.44-19.75,15.69c-2.93,9.13-1.17,18.73,13.02,18.73,7.61,0,12-3.51,15.8-9.6l15.07,5.74c-7.46,9.72-17.99,15.69-32.04,15.69-23.7,0-34.53-15.1-28.68-33.13Z"/>
      <path class="cls-6" d="M1031.57,556.46c5.12-15.45,20.63-25.64,38.48-25.64,23.56,0,35.7,14.75,29.56,32.54-4.97,15.22-20.77,25.28-38.63,25.28-22.82,0-35.4-14.16-29.41-32.19ZM1082.2,561.84c3.07-10.18-.15-19.2-13.31-19.2-9.36,0-16.83,5.74-20.05,15.45-2.78,9.01-.44,18.73,13.61,18.73,9.36,0,16.68-5.03,19.75-14.98Z"/>
      <path class="cls-6" d="M1086.74,574.37l16.24-5.38c2.93,4.8,8.48,8.66,16.83,8.66,4.97,0,7.9-1.29,9.07-4.45,1.46-3.75-2.63-5.62-14.05-8.78-14.34-3.98-20.63-9.37-17.99-19.78,2.93-8.9,14.05-14.4,27.07-14.4s24.87,5.38,30.73,15.45l-15.8,4.57c-2.78-5.15-8.2-8.43-16.09-8.43-4.83,0-8.63,1.64-9.8,4.68-1.03,3.98,1.9,5.15,12.73,8.19,14.48,3.86,23.26,10.18,19.75,20.48-3.37,9.95-13.46,14.28-27.51,14.28s-25.89-5.74-31.16-15.1Z"/>
    </g>
    <text class="cls-5" transform="translate(913.74 624.72) scale(1 .8)"><tspan class="cls-8" x="0" y="0">do</tspan><tspan class="cls-7" x="59.88" y="0">n</tspan><tspan class="cls-4" x="88.62" y="0">n</tspan><tspan class="cls-2" x="117.18" y="0">é</tspan><tspan class="cls-14" x="146.04" y="0">e</tspan><tspan class="cls-12" x="175.02" y="0">s c</tspan><tspan class="cls-9" x="238.56" y="0">a</tspan><tspan class="cls-1" x="266.46" y="0">p</tspan><tspan class="cls-13" x="296.52" y="0">t</tspan><tspan class="cls-3" x="313.2" y="0">u</tspan><tspan class="cls-10" x="341.76" y="0">r</tspan><tspan class="cls-9" x="357.66" y="0">é</tspan><tspan class="cls-11" x="386.52" y="0">e</tspan><tspan class="cls-12" x="415.5" y="0">s</tspan></text>
  </g>
</svg>