<?xml version="1.0" encoding="UTF-8"?>
<svg id="Calque_4" data-name="Calque 4" xmlns="http://www.w3.org/2000/svg" xmlns:xlink="http://www.w3.org/1999/xlink" viewBox="74 0 500 500">
  <defs>
    <style>
      .cls-1 {
        fill: url(#Dégradé_sans_nom_45);
      }

      .cls-2 {
        fill: url(#Dégradé_sans_nom_45-3);
      }

      .cls-3 {
        fill: url(#Dégradé_sans_nom_45-2);
      }

      .cls-4 {
        fill: url(#Dégradé_sans_nom_45-4);
      }
    </style>
    <linearGradient id="Dégradé_sans_nom_45" data-name="Dégradé sans nom 45" x1="234.94" y1="53.16" x2="527" y2="53.16" gradientUnits="userSpaceOnUse">
      <stop offset=".3" stop-color="#8f6bff"/>
      <stop offset="1" stop-color="#5835e4"/>
    </linearGradient>
    <linearGradient id="Dégradé_sans_nom_45-2" data-name="Dégradé sans nom 45" x1="84.55" y1="191.21" x2="572.33" y2="191.21" xlink:href="#Dégradé_sans_nom_45"/>
    <linearGradient id="Dégradé_sans_nom_45-3" data-name="Dégradé sans nom 45" x1="118.22" y1="446.63" x2="410.09" y2="446.63" xlink:href="#Dégradé_sans_nom_45"/>
    <linearGradient id="Dégradé_sans_nom_45-4" data-name="Dégradé sans nom 45" x1="74.06" y1="338.92" x2="566.59" y2="338.92" xlink:href="#Dégradé_sans_nom_45"/>
  </defs>
  <path class="cls-1" d="M332.72,44.47c-32.26-17.38-65.63-26.19-97.78-28.33C262.33,5.82,292.02.18,323.02.18c84.22,0,158.71,41.65,203.98,105.48-57.27,4.42-117.9-22.77-194.26-61.18h-.02Z"/>
  <path class="cls-3" d="M220.01,175.09H84.55c5.42-17.28,12.68-33.75,21.53-49.18,35.85-5.16,75.05-2.62,119.33,11.14,9.28,2.81,19,6.18,28.93,10.12l.22.19c17.49,7.12,36.06,10.86,55.27,10.86h8.64l237.17.31c9.13,23.18,14.9,48.05,16.69,74.02-28.68,16.22-63.43,28.51-101.21,26.13-48.8-3-99.32-30.36-152.65-59.23-.43-.18-.65-.18-.87-.37-29.36-15.55-63.26-23.99-97.59-23.99Z"/>
  <path class="cls-2" d="M410.09,484.37c-27.11,10.08-56.45,15.59-87.07,15.59-84.74,0-159.62-42.16-204.8-106.65,35.47.76,72.67,9.5,108.49,28.97h-.44c.44,0,.65.38,1.08.38,12.96,6.74,25.91,13.11,38.22,18.92.86.57,1.51.75,2.38,1.13,6.47,3,12.95,5.99,19.21,8.81,4.32,1.87,8.42,3.74,12.52,5.43,2.16.94,4.32,1.88,6.48,2.62,2.16.94,4.54,1.88,6.91,2.82,33.4,13.41,65.11,22.45,97.02,21.98Z"/>
  <path class="cls-4" d="M566.59,306.27c-5.3,23.08-13.8,44.92-24.99,65.06h0s-.01.02-.01.02c-31.13,20.37-71.33,37.94-115.81,35-48.8-3-99.54-30.36-152.87-59.22-.43-.19-.65-.19-.65-.37-28.93-15.56-62.18-23.99-96.29-23.99h-92.12c-4.94-16.24-8.26-33.19-9.79-50.65,32.3-2.89,67.35.56,106.44,12.6,9.29,2.82,18.79,6.19,28.5,10.12h.22c17.49,7.13,36.27,11.06,55.92,11.06h7.77l293.68.37Z"/>
</svg>