<?xml version="1.0" encoding="UTF-8"?>
<svg id="Calque_5" data-name="Calque 5" xmlns="http://www.w3.org/2000/svg" viewBox="0 0 646.22 500">
  <defs>
    <style>
      .cls-1 {
        fill: #5835e4;
      }
    </style>
  </defs>
  <g>
    <path class="cls-1" d="M191.05,234.28c3.93-12.04,15.73-19.59,29.09-19.59,18.2,0,25.5,11.5,21.23,24.62l-.45,1.26h-37.97c-.22,5.84,3.82,9.98,12.47,9.98,6.18,0,9.77-2.52,12.24-5.57l10.78,5.03c-4.94,5.48-13.03,9.34-23.7,9.34-19.43,0-28.19-10.6-23.7-25.07ZM218.8,223.31c-6.4,0-11.91,3.33-14.27,9.53h24.94c.9-4.5-1.35-9.53-10.67-9.53ZM231.15,196.62h15.95l-.34,1.08-21.34,12.31h-8.2l13.93-13.39Z"/>
    <path class="cls-1" d="M237.11,233.56c3.71-11.5,15.28-19.05,28.98-19.05s21.9,6.56,22.46,16.09l-13.82,1.98c0-5.3-2.58-9.08-9.55-9.08s-12.8,4.94-15.16,12.04c-2.25,7.01-.9,14.38,10,14.38,5.84,0,9.21-2.7,12.13-7.37l11.57,4.4c-5.73,7.46-13.82,12.04-24.6,12.04-18.2,0-26.51-11.59-22.02-25.43Z"/>
    <path class="cls-1" d="M295.42,197.61h13.37l-7.97,23.64c3.93-3.86,8.76-6.29,14.49-6.29,12.69,0,18.87,8.18,14.94,19.77l-7.86,23.37h-13.7l8.09-24.08c1.8-5.57,0-10.16-7.75-10.16-6.29,0-10.56,4.49-12.8,11.41l-7.64,22.83h-13.37l20.22-60.48Z"/>
    <path class="cls-1" d="M325.64,234.37c3.93-11.86,15.84-19.68,29.54-19.68,18.08,0,27.41,11.32,22.69,24.98-3.82,11.68-15.95,19.41-29.65,19.41-17.52,0-27.18-10.87-22.58-24.71ZM364.5,238.5c2.36-7.82-.11-14.74-10.22-14.74-7.19,0-12.92,4.4-15.39,11.86-2.13,6.92-.34,14.38,10.45,14.38,7.19,0,12.81-3.86,15.16-11.5Z"/>
    <path class="cls-1" d="M367.99,248.12l12.47-4.13c2.25,3.68,6.51,6.65,12.92,6.65,3.82,0,6.07-.99,6.96-3.41,1.12-2.87-2.02-4.31-10.78-6.74-11.01-3.06-15.84-7.19-13.82-15.19,2.25-6.83,10.78-11.05,20.78-11.05s19.1,4.13,23.59,11.86l-12.13,3.51c-2.13-3.96-6.29-6.47-12.36-6.47-3.71,0-6.63,1.26-7.53,3.6-.79,3.06,1.46,3.95,9.77,6.29,11.12,2.96,17.86,7.82,15.16,15.73-2.58,7.64-10.33,10.97-21.12,10.97s-19.88-4.4-23.93-11.59Z"/>
  </g>
  <g>
    <path class="cls-1" d="M189.26,284.28c0-6.74,5.11-11.15,11.97-11.15,3.71,0,6.69,1.39,8.6,3.64v-12.27h5.28v30.3h-5.28v-3.15c-1.85,2.2-4.89,3.6-8.65,3.6-6.74,0-11.91-4.09-11.91-10.97ZM210.1,284.28v-.36c0-4.23-2.87-7.06-7.53-7.06s-7.59,2.65-7.59,7.28v.31c0,4.54,2.98,7.06,7.59,7.06s7.53-3.01,7.53-7.24Z"/>
    <path class="cls-1" d="M216,284.24c0-6.47,5.51-11.01,13.32-11.01s13.26,4.54,13.26,11.01-5.62,10.92-13.37,10.92-13.2-4.45-13.2-10.92ZM237.01,284.37v-.18c0-4.45-2.92-7.28-7.7-7.28s-7.81,2.83-7.81,7.28v.18c0,4.36,2.92,7.06,7.7,7.06s7.81-2.7,7.81-7.06Z"/>
    <path class="cls-1" d="M243.46,273.58h5.45v4.05c1.41-2.88,4.16-4.5,8.15-4.5,5.73,0,9.21,3.1,9.21,8.72v12.95h-5.45v-12.68c0-3.37-1.8-5.12-5.39-5.12-4.16,0-6.52,2.74-6.52,7.69v10.12h-5.45v-21.22Z"/>
    <path class="cls-1" d="M268.69,273.58h5.45v4.05c1.41-2.88,4.16-4.5,8.15-4.5,5.73,0,9.21,3.1,9.21,8.72v12.95h-5.45v-12.68c0-3.37-1.8-5.12-5.39-5.12-4.16,0-6.52,2.74-6.52,7.69v10.12h-5.45v-21.22Z"/>
    <path class="cls-1" d="M292.22,284.33c0-6.56,5.45-11.1,12.98-11.1s12.47,4.18,12.47,10.83v1.62h-20c.34,3.64,3.2,5.94,7.75,5.94s6.52-1.75,7.53-3.82l4.83,1.48c-1.74,3.19-5.56,5.89-12.36,5.89-8.15,0-13.2-4.32-13.2-10.83ZM305.09,276.77c-4.05,0-6.97,2.16-7.53,5.62h14.5c-.22-3.69-2.75-5.62-6.97-5.62ZM308.97,263.87h6.12v.41l-8.48,6.16h-3.37l5.73-6.56Z"/>
    <path class="cls-1" d="M317.56,284.33c0-6.56,5.45-11.1,12.98-11.1s12.47,4.18,12.47,10.83v1.62h-20c.34,3.64,3.2,5.94,7.75,5.94s6.52-1.75,7.53-3.82l4.83,1.48c-1.74,3.19-5.56,5.89-12.36,5.89-8.15,0-13.2-4.32-13.2-10.83ZM330.42,276.77c-4.05,0-6.97,2.16-7.53,5.62h14.5c-.22-3.69-2.75-5.62-6.97-5.62Z"/>
    <path class="cls-1" d="M342.83,290.94l4.72-1.98c1.63,1.89,4.38,2.83,7.19,2.83,3.03,0,4.83-1.08,4.83-2.88,0-1.89-3.2-2.29-7.3-3.01-4.89-.81-9.16-2.11-9.16-6.2,0-3.73,4.44-6.56,10-6.56,5,0,8.88,1.8,11.46,4.54l-4.78,1.84c-1.46-1.8-3.88-2.83-6.69-2.83s-4.72,1.08-4.72,2.7c0,1.8,1.74,2.11,6.57,2.88,4.89.76,9.89,2.16,9.89,6.34,0,3.96-4.33,6.79-10.34,6.79-5.17,0-9.27-1.71-11.69-4.45Z"/>
    <path class="cls-1" d="M372.88,284.15c0-6.34,5.39-10.92,13.15-10.92,6.18,0,10.17,2.7,11.8,6.79l-5.23,1.35c-.9-2.79-2.86-4.45-6.69-4.45-4.66,0-7.53,2.92-7.53,7.19v.18c0,4.18,2.7,7.19,7.36,7.19,4.33,0,6.18-1.75,7.14-4.68l5.17,1.3c-1.8,4.27-5.79,7.06-12.19,7.06-7.92,0-12.98-4.54-12.98-11.01Z"/>
    <path class="cls-1" d="M397.54,289.23c0-4.77,4.44-5.84,10.34-6.88,4.55-.77,7.36-.99,7.87-2.25v-.27c0-1.75-1.63-3.1-5.73-3.1s-6.35,1.44-6.35,3.87v.22h-5.51c.17-4.72,4.89-7.6,11.91-7.6s10.84,2.43,10.84,7.78v13.8h-5.23v-3.19c-1.85,2.52-5.17,3.73-8.93,3.73-5.67,0-9.21-2.47-9.21-6.11ZM415.75,286.26v-2.65c-1.63.9-4.49,1.26-7.08,1.75-3.03.63-5.56,1.39-5.56,3.69,0,1.75,1.63,2.97,4.55,2.97,3.93,0,7.64-1.62,8.09-5.75Z"/>
    <path class="cls-1" d="M423.38,273.58h5.34v3.15c1.8-2.25,4.89-3.6,8.6-3.6,6.85,0,11.97,4.14,11.97,10.92v.05c0,6.83-5.11,11.15-12.02,11.15-3.65,0-6.63-1.35-8.48-3.55v11.46h-5.39v-29.58ZM443.55,284.24v-.31c0-4.59-3.03-7.06-7.59-7.06s-7.53,2.97-7.53,7.24v.36c0,4.23,2.86,7.06,7.53,7.06s7.59-2.7,7.59-7.28Z"/>
    <path class="cls-1" d="M451.97,289.5v-12.18h-4.27v-3.73h4.27v-4.18l5.23-2.61v6.79h5.79v3.73h-5.79v11.69c0,1.35.67,1.98,2.42,1.98h3.15v3.82h-4.72c-4.78,0-6.07-1.93-6.07-5.3Z"/>
    <path class="cls-1" d="M463.32,286.48v-12.9h5.51v12.68c0,3.33,1.8,5.12,5.45,5.12,4.38,0,6.46-3.06,6.46-7.69v-10.12h5.39v21.22h-5.39v-3.78c-1.46,2.74-4.05,4.14-7.92,4.14-5.95,0-9.49-3.28-9.49-8.68Z"/>
    <path class="cls-1" d="M488.82,273.58h5.45v4c.73-2.47,2.81-4.23,7.75-4.23h.79v4.32h-2.47c-4.78,0-6.07,1.89-6.07,6.25v10.88h-5.45v-21.22Z"/>
    <path class="cls-1" d="M500.51,284.33c0-6.56,5.45-11.1,12.98-11.1s12.47,4.18,12.47,10.83v1.62h-20c.34,3.64,3.2,5.94,7.75,5.94s6.52-1.75,7.53-3.82l4.83,1.48c-1.74,3.19-5.56,5.89-12.36,5.89-8.15,0-13.2-4.32-13.2-10.83ZM513.37,276.77c-4.05,0-6.97,2.16-7.53,5.62h14.5c-.22-3.69-2.75-5.62-6.97-5.62ZM517.25,263.87h6.12v.41l-8.48,6.16h-3.37l5.73-6.56Z"/>
    <path class="cls-1" d="M525.84,284.33c0-6.56,5.45-11.1,12.98-11.1s12.47,4.18,12.47,10.83v1.62h-20c.34,3.64,3.2,5.94,7.75,5.94s6.52-1.75,7.53-3.82l4.83,1.48c-1.74,3.19-5.56,5.89-12.36,5.89-8.15,0-13.2-4.32-13.2-10.83ZM538.7,276.77c-4.05,0-6.97,2.16-7.53,5.62h14.5c-.22-3.69-2.75-5.62-6.97-5.62Z"/>
    <path class="cls-1" d="M551.11,290.94l4.72-1.98c1.63,1.89,4.38,2.83,7.19,2.83,3.03,0,4.83-1.08,4.83-2.88,0-1.89-3.2-2.29-7.3-3.01-4.89-.81-9.16-2.11-9.16-6.2,0-3.73,4.44-6.56,10-6.56,5,0,8.88,1.8,11.46,4.54l-4.78,1.84c-1.46-1.8-3.88-2.83-6.69-2.83s-4.72,1.08-4.72,2.7c0,1.8,1.74,2.11,6.57,2.88,4.89.76,9.89,2.16,9.89,6.34,0,3.96-4.33,6.79-10.34,6.79-5.17,0-9.27-1.71-11.69-4.45Z"/>
  </g>
</svg>